<svg id="Logo" xmlns="http://www.w3.org/2000/svg" xmlns:xlink="http://www.w3.org/1999/xlink" viewBox="0 0 47.98 48"><defs><style>.cls-1,.cls-11,.cls-12,.cls-13,.cls-14,.cls-3,.cls-4,.cls-5,.cls-8,.cls-9{fill:none;}.cls-2{fill:#2984fa;}.cls-3,.cls-4,.cls-8,.cls-9{stroke:#fff;}.cls-11,.cls-12,.cls-13,.cls-14,.cls-3,.cls-4,.cls-5,.cls-8,.cls-9{stroke-miterlimit:10;}.cls-3{stroke-width:0.85px;}.cls-4,.cls-9{stroke-width:0.76px;}.cls-5{stroke:#f9f9f9;stroke-width:1.02px;}.cls-6{fill:#fff;}.cls-7{clip-path:url(#clip-path);}.cls-8{stroke-width:1.06px;}.cls-11,.cls-12,.cls-13,.cls-14,.cls-9{stroke-linecap:round;}.cls-10{fill:#e7d065;}.cls-11,.cls-12,.cls-13,.cls-14{stroke:#fff4c5;}.cls-11{stroke-width:0.71px;}.cls-12{stroke-width:0.6px;}.cls-13{stroke-width:0.46px;}.cls-14{stroke-width:0.3px;}</style><clipPath id="clip-path" transform="translate(0.01 0.15)"><ellipse id="Circle" class="cls-1" cx="23.99" cy="23.74" rx="24" ry="23.86"/></clipPath></defs><title>Favicon</title><ellipse id="Background_logo" data-name="Background logo" class="cls-2" cx="24.02" cy="24.14" rx="23.96" ry="23.86"/><path id="mop" class="cls-3" d="M37.86,34.45,34.35,37a1.1,1.1,0,0,1-1.52-.23L15.43,13.38a1.08,1.08,0,0,1,.23-1.52l3.51-2.58a1.1,1.1,0,0,1,1.52.23l17.4,23.42A1.08,1.08,0,0,1,37.86,34.45Z" transform="translate(0.01 0.15)"/><path id="mop-2" data-name="mop" class="cls-4" d="M26,18.05h0a.83.83,0,0,1,1.15.17l4.11,5.53a.82.82,0,0,1-.17,1.14h0a.83.83,0,0,1-1.15-.17L25.83,19.2A.82.82,0,0,1,26,18.05Z" transform="translate(0.01 0.15)"/><line id="mop-3" data-name="mop" class="cls-5" x1="16.75" y1="11.27" x2="35.72" y2="36.56"/><ellipse id="Circle-2" data-name="Circle" class="cls-1" cx="23.96" cy="23.86" rx="23.96" ry="23.86"/><path id="mop-4" data-name="mop" class="cls-6" d="M16.43,13.37,33,35.66a1.1,1.1,0,0,1-.23,1.54l-.26.19a1.11,1.11,0,0,1-1.55-.23L14.39,14.87a1.1,1.1,0,0,1,.23-1.54l.26-.19A1.11,1.11,0,0,1,16.43,13.37Z" transform="translate(0.01 0.15)"/><g id="Clipping_group" data-name="Clipping group"><g class="cls-7"><path id="mop-5" data-name="mop" class="cls-8" d="M42.78,12.85c-.79.6-11.38,8.79-12.8,9.68a1.44,1.44,0,0,1-.82.25.94.94,0,0,1-.7-.36l-.89-1.17a1.07,1.07,0,0,1,.3-1.48L43.67,7.83a1.09,1.09,0,0,1,1.52.11l.89,1.17a1.07,1.07,0,0,1-.3,1.48L43.64,12.2" transform="translate(0.01 0.15)"/><line id="mop_light_line" data-name="mop light line" class="cls-9" x1="29.94" y1="19.93" x2="44.27" y2="9.26"/></g></g><path id="Surface" class="cls-6" d="M13.3,14.95h0C8.37,22.7,9.74,31.46,10,32.76a26.07,26.07,0,0,0,3.52,9.17h0c.14.11,1.53-1.71,3-3.08a15.21,15.21,0,0,1,3.3-2.3,14.19,14.19,0,0,1,5.47-1.44,14.35,14.35,0,0,1,3.18.17q-3.85-5-7.74-10.17T13.3,14.95Z" transform="translate(0.01 0.15)"/><path id="Contour" class="cls-2" d="M23.66,28.48c-.11-.1-.27-.25-.47-.41a3.13,3.13,0,0,0-.5-.37,1.9,1.9,0,0,0-.67-.21,2.62,2.62,0,0,0-.38,0,3,3,0,0,0-.43,0c-2.59.47-6.7,3-6.7,3-1.86,1.21-4.6,3-6.43,4.31L7.92,35S21.2,25,21.2,25q.63.93,1.29,1.87Z" transform="translate(0.01 0.15)"/><ellipse id="Soap_bubble" data-name="Soap bubble" class="cls-10" cx="29.68" cy="12.04" rx="1.96" ry="1.95"/><ellipse id="Soap_bubble-2" data-name="Soap bubble" class="cls-10" cx="32.39" cy="7.79" rx="3.02" ry="3.01"/><ellipse id="Soap_bubble-3" data-name="Soap bubble" class="cls-10" cx="26.34" cy="8.83" rx="2.53" ry="2.52"/><ellipse id="Soap_bubble-4" data-name="Soap bubble" class="cls-10" cx="33.34" cy="12.04" rx="1.28" ry="1.27"/><path id="glare" class="cls-11" d="M32.38,5.19A2.5,2.5,0,0,1,34.69,7.7,2.49,2.49,0,0,1,33,10" transform="translate(0.01 0.15)"/><path id="glare-2" data-name="glare" class="cls-12" d="M26.34,6.63a2,2,0,0,1,.53,4" transform="translate(0.01 0.15)"/><path id="glare-3" data-name="glare" class="cls-13" d="M29.67,10.31a1.58,1.58,0,0,1,.41,3.09" transform="translate(0.01 0.15)"/><path id="glare-4" data-name="glare" class="cls-14" d="M33.33,10.86a1,1,0,0,1,.27,2" transform="translate(0.01 0.15)"/></svg>