<svg id="Logo" xmlns="http://www.w3.org/2000/svg" xmlns:xlink="http://www.w3.org/1999/xlink" viewBox="0 0 498.93 500.78"><defs><style>.cls-1,.cls-11,.cls-12,.cls-13,.cls-14,.cls-3,.cls-4,.cls-5,.cls-8,.cls-9{fill:none;}.cls-2{fill:#2984fa;}.cls-3,.cls-4,.cls-8,.cls-9{stroke:#fff;}.cls-11,.cls-12,.cls-13,.cls-14,.cls-3,.cls-4,.cls-5,.cls-8,.cls-9{stroke-miterlimit:10;}.cls-3{stroke-width:8.84px;}.cls-4,.cls-9{stroke-width:7.95px;}.cls-5{stroke:#f9f9f9;stroke-width:10.61px;}.cls-6{fill:#fff;}.cls-7{clip-path:url(#clip-path);}.cls-8{stroke-width:11.01px;}.cls-11,.cls-12,.cls-13,.cls-14,.cls-9{stroke-linecap:round;}.cls-10{fill:#e7d065;}.cls-11,.cls-12,.cls-13,.cls-14{stroke:#fff4c5;}.cls-11{stroke-width:7.42px;}.cls-12{stroke-width:6.22px;}.cls-13{stroke-width:4.81px;}.cls-14{stroke-width:3.14px;}</style><clipPath id="clip-path" transform="translate(-0.43 1.61)"><ellipse id="Circle" class="cls-1" cx="250" cy="247.67" rx="249.57" ry="248.89"/></clipPath></defs><title>Logo</title><ellipse id="Background_logo" data-name="Background logo" class="cls-2" cx="249.74" cy="251.9" rx="249.2" ry="248.89"/><g id="Mop"><path id="mop-2" data-name="mop" class="cls-3" d="M394.21,359.33l-36.51,27a11.36,11.36,0,0,1-15.83-2.37L161,139.58a11.33,11.33,0,0,1,2.37-15.81l36.51-27a11.36,11.36,0,0,1,15.83,2.37L396.58,343.51A11.33,11.33,0,0,1,394.21,359.33Z" transform="translate(-0.43 1.61)"/><path id="mop-3" data-name="mop" class="cls-4" d="M270.91,188.31h0a8.57,8.57,0,0,1,11.95,1.79l42.74,57.73a8.55,8.55,0,0,1-1.79,11.93h0A8.57,8.57,0,0,1,311.86,258l-42.74-57.73A8.55,8.55,0,0,1,270.91,188.31Z" transform="translate(-0.43 1.61)"/><line id="mop-4" data-name="mop" class="cls-5" x1="174.13" y1="117.59" x2="371.45" y2="381.39"/><ellipse id="Circle-2" data-name="Circle" class="cls-1" cx="249.2" cy="248.89" rx="249.2" ry="248.89"/><path id="mop-5" data-name="mop" class="cls-6" d="M171.34,139.44,343.49,372a11.51,11.51,0,0,1-2.42,16.11l-2.68,2a11.54,11.54,0,0,1-16.13-2.41L150.11,155.12A11.51,11.51,0,0,1,152.53,139l2.68-2A11.54,11.54,0,0,1,171.34,139.44Z" transform="translate(-0.43 1.61)"/><g id="Clipping_group" data-name="Clipping group"><g class="cls-7"><path id="mop-6" data-name="mop" class="cls-8" d="M445.36,134C437.11,140.27,327,225.76,312.21,235c-1.88,1.17-5.09,2.88-8.54,2.64a9.8,9.8,0,0,1-7.23-3.74l-9.26-12.18c-3.46-4.56-2-11.52,3.17-15.47L454.6,81.68c5.21-3.95,12.3-3.45,15.77,1.11L479.62,95c3.46,4.56,2,11.52-3.17,15.47l-22.19,16.82" transform="translate(-0.43 1.61)"/><line id="mop_light_line" data-name="mop light line" class="cls-9" x1="311.3" y1="207.94" x2="460.32" y2="96.64"/></g></g></g><g id="Surface"><path id="Surface-2" data-name="Surface" class="cls-6" d="M138.81,155.9l-.07.11c-51.17,80.78-37,172.21-34.69,185.68,9.71,57.21,34.65,90,36.6,95.66a.25.25,0,0,0,.08.13c1.45,1.1,15.94-17.89,31.54-32.14a158.12,158.12,0,0,1,34.27-23.95,147.14,147.14,0,0,1,56.84-15.07A148.75,148.75,0,0,1,296.51,368Q256.45,316.3,216.05,262,176.27,208.44,138.81,155.9Z" transform="translate(-0.43 1.61)"/><path id="Contour" class="cls-2" d="M246.51,297.08c-1.13-1.07-2.78-2.57-4.86-4.31a32.58,32.58,0,0,0-5.2-3.86,19.7,19.7,0,0,0-7-2.21,27.13,27.13,0,0,0-4-.22,31.33,31.33,0,0,0-4.42.44c-26.92,4.89-69.67,31.74-69.67,31.74-19.39,12.67-47.88,31.2-66.83,44.92l-1.74,1.26C82.46,364.34,221,260.32,221,260.32q6.53,9.69,13.38,19.54Q240.44,288.61,246.51,297.08Z" transform="translate(-0.43 1.61)"/></g><g id="Soap_bubble" data-name="Soap bubble"><ellipse id="Soap_bubble-2" data-name="Soap bubble" class="cls-10" cx="308.62" cy="125.66" rx="20.37" ry="20.34"/><ellipse id="Soap_bubble-3" data-name="Soap bubble" class="cls-10" cx="334.97" cy="76.04" rx="31.4" ry="31.36"/><ellipse id="Soap_bubble-4" data-name="Soap bubble" class="cls-10" cx="272.14" cy="86.9" rx="26.34" ry="26.3"/><ellipse id="Soap_bubble-5" data-name="Soap bubble" class="cls-10" cx="346.65" cy="125.66" rx="13.29" ry="13.27"/><path id="glare" class="cls-11" d="M335.39,48.88a26.07,26.07,0,0,1,24.09,26.23A26,26,0,0,1,342,98.57" transform="translate(-0.43 1.61)"/><path id="glare-2" data-name="glare" class="cls-12" d="M272.57,63.87a21.39,21.39,0,0,1,5.51,41.67" transform="translate(-0.43 1.61)"/><path id="glare-3" data-name="glare" class="cls-13" d="M309,107.48a16.54,16.54,0,0,1,4.26,32.23" transform="translate(-0.43 1.61)"/><path id="glare-4" data-name="glare" class="cls-14" d="M347.08,113.23a10.79,10.79,0,0,1,2.78,21" transform="translate(-0.43 1.61)"/></g></svg>